HIERARCHY
ROOT pelvis
{
	OFFSET 0.00 0.00 0.00
	CHANNELS 6 Xposition Yposition Zposition Xrotation Yrotation Zrotation
	JOINT lfemur
	{
		OFFSET 0.00000 4.04436 0.00000
		CHANNELS 3 Xrotation Yrotation Zrotation
		JOINT ltibia
		{
			OFFSET 0.00000 0.00000 -16.29375
			CHANNELS 3 Xrotation Yrotation Zrotation
			JOINT lfoot
			{
				OFFSET 0.00000 0.00000 -15.07135
				CHANNELS 3 Xrotation Yrotation Zrotation
				JOINT ltoes
				{
					OFFSET 4.08523 0.00000 0.00000
					CHANNELS 3 Xrotation Yrotation Zrotation
				}
			}
		}
	}
	JOINT rfemur
	{
		OFFSET 0.00000 -4.04436 0.00000
		CHANNELS 3 Xrotation Yrotation Zrotation
		JOINT rtibia
		{
			OFFSET 0.00000 0.00000 -16.29375
			CHANNELS 3 Xrotation Yrotation Zrotation
			JOINT rfoot
			{
				OFFSET 0.00000 0.00000 -15.07135
				CHANNELS 3 Xrotation Yrotation Zrotation
				JOINT rtoes
				{
					OFFSET 4.08523 0.00000 0.00000
					CHANNELS 3 Xrotation Yrotation Zrotation
				}
			}
		}
	}
	JOINT thorax
	{
		OFFSET -1.96850 0.00000 3.38723
		CHANNELS 6 Xposition Yposition Zposition Xrotation Yrotation Zrotation
		JOINT head
		{
			OFFSET 0.00000 0.00000 16.93583
			CHANNELS 6 Xposition Yposition Zposition Xrotation Yrotation Zrotation
		}
		JOINT lclavicle
		{
			OFFSET 0.00000 0.00000 14.46426
			CHANNELS 3 Xrotation Yrotation Zrotation
			JOINT lhumerus
			{
				OFFSET 0.00000 6.07503 0.73740
				CHANNELS 3 Xrotation Yrotation Zrotation
				JOINT lradius
				{
					OFFSET 0.00000 0.00000 -10.44175
					CHANNELS 3 Xrotation Yrotation Zrotation
					JOINT lhand
					{
						OFFSET 0.00000 0.00000 -9.67100
						CHANNELS 3 Xrotation Yrotation Zrotation
					}
				}
			}
		}
		JOINT rclavicle
		{
			OFFSET 0.00000 0.00000 14.46426
			CHANNELS 3 Xrotation Yrotation Zrotation
			JOINT rhumerus
			{
				OFFSET 0.00000 -6.07503 0.73740
				CHANNELS 3 Xrotation Yrotation Zrotation
				JOINT rradius
				{
					OFFSET 0.00000 0.00000 -10.44175
					CHANNELS 3 Xrotation Yrotation Zrotation
					JOINT rhand
					{
						OFFSET 0.00000 0.00000 -9.67100
						CHANNELS 3 Xrotation Yrotation Zrotation
					}
				}
			}
		}
	}
}
MOTION
Frames: 9
Frame Time: 0.008333
 41.6122 8.6612 33.1529 1.8250 -0.5510 -86.0551 -4.4024 1.2366 0.0166 -0.0000 6.4088 -0.0000 0.0000 13.7693 4.4947 0.0000 -18.9320 -0.0000 1.6284 4.6974 0.3295 0.0000 1.3525 -0.0000 0.0000 13.6190 -9.6345 0.0000 -20.9952 -0.0000 41.0931 11.6694 36.6290 -0.9924 4.7032 7.0313 41.1041 9.0252 53.4763 -8.8762 -19.2452 -1.0969 -13.5777 0.0000 -10.1235 18.7934 -3.5965 22.2437 0.0000 -24.8167 -56.9354 1.5265 -0.9888 -0.0000 13.9387 -0.0000 9.9592 -17.7473 2.3427 -27.5349 0.0000 -34.2399 58.7678 6.4794 -10.3726 -0.0000
 41.6130 8.6620 33.1536 1.8279 -0.5574 -86.0921 -4.3999 1.2391 0.2017 -0.0000 6.4002 0.0000 -0.0000 13.6771 4.3238 0.0000 -18.5945 0.0000 1.6188 4.6960 0.3924 -0.0000 1.3370 -0.0000 0.0000 13.6527 -9.6657 0.0000 -20.9768 -0.0000 41.0894 11.6851 36.6302 -1.0123 4.7252 7.0250 41.0992 9.0398 53.4760 -8.9449 -19.2319 -1.1688 -13.5770 0.0000 -10.1721 18.7126 -3.6440 22.2766 0.0000 -24.8150 -57.0411 1.5220 -1.1533 0.0000 13.9063 -0.0000 10.0722 -17.6670 2.3519 -27.6765 -0.0000 -34.2356 58.8142 6.4536 -10.3543 -0.0000
 41.6103 8.6644 33.1535 1.8259 -0.5598 -86.0882 -4.3886 1.2451 0.2053 -0.0000 6.3844 0.0000 0.0000 13.7041 4.2700 0.0000 -18.6610 -0.0000 1.6204 4.6976 0.3328 -0.0000 1.3282 -0.0000 0.0000 13.6321 -9.6156 0.0000 -20.9151 -0.0000 41.0873 11.6897 36.6325 -1.0279 4.7156 7.0200 41.1007 9.0485 53.4766 -8.9616 -19.2460 -1.2472 -13.5893 0.0000 -10.1907 18.6428 -3.6846 22.1115 0.0000 -24.7710 -56.9146 1.7878 -1.1591 -0.0000 13.9077 -0.0000 10.0638 -17.6476 2.3612 -27.6763 -0.0000 -34.2156 58.9037 6.5267 -10.5123 -0.0000
 41.6143 8.6664 33.1555 1.8210 -0.5587 -86.1437 -4.3955 1.2539 0.3150 -0.0000 6.3734 0.0000 -0.0000 13.6975 4.2430 0.0000 -18.6218 0.0000 1.6127 4.6919 0.3743 -0.0000 1.3277 0.0000 0.0000 13.6611 -9.6211 0.0000 -20.9503 -0.0000 41.0890 11.6914 36.6312 -1.0328 4.6961 7.0371 41.0993 9.0584 53.4767 -9.0069 -19.2191 -1.2949 -13.6116 0.0000 -10.1517 18.5671 -3.7128 22.0264 0.0000 -24.8160 -57.0426 1.4470 -1.1394 0.0000 13.9018 -0.0000 10.0433 -17.6263 2.3552 -27.5841 -0.0000 -34.1996 58.8623 6.5184 -10.4835 -0.0000
 41.6124 8.6687 33.1560 1.8183 -0.5623 -86.2245 -4.3953 1.2805 0.4050 -0.0000 6.3232 0.0000 0.0000 13.7323 4.2082 0.0000 -18.6464 -0.0000 1.6070 4.6765 0.4483 0.0000 1.3418 -0.0000 0.0000 13.6515 -9.6209 0.0000 -20.9375 -0.0000 41.0884 11.6896 36.6302 -1.0530 4.6633 7.0887 41.0967 9.0727 53.4780 -9.0349 -19.1539 -1.3136 -13.6110 0.0000 -10.0976 18.4901 -3.7671 21.8901 0.0000 -24.7814 -57.1170 1.4389 -1.1720 -0.0000 13.8907 -0.0000 10.0077 -17.5896 2.3595 -27.4509 0.0000 -34.1794 58.8079 6.4577 -10.4287 0.0000
 41.6140 8.6706 33.1569 1.8148 -0.5609 -86.2510 -4.3969 1.2878 0.4300 -0.0000 6.3117 0.0000 -0.0000 13.7244 4.2129 0.0000 -18.5915 -0.0000 1.6047 4.6711 0.4288 0.0000 1.3420 -0.0000 0.0000 13.6598 -9.5945 0.0000 -20.9039 -0.0000 41.0898 11.6925 36.6301 -1.0589 4.6433 7.0975 41.0980 9.0824 53.4791 -9.0504 -19.1385 -1.3704 -13.6424 0.0000 -10.0848 18.4336 -3.7935 21.8392 0.0000 -24.8147 -57.2754 1.1114 -1.1800 0.0000 13.9023 -0.0000 9.9948 -17.5784 2.3623 -27.4224 0.0000 -34.1730 58.7885 6.5606 -10.4016 0.0000
 41.6153 8.6720 33.1574 1.8135 -0.5603 -86.3198 -4.4008 1.3055 0.5174 -0.0000 6.2789 0.0000 0.0000 13.7359 4.2119 0.0000 -18.6275 -0.0000 1.5970 4.6581 0.4416 0.0000 1.3478 -0.0000 0.0000 13.6671 -9.5433 0.0000 -20.9304 0.0000 41.0945 11.6911 36.6290 -1.0588 4.6088 7.1269 41.0959 9.0955 53.4798 -9.0955 -19.0691 -1.3885 -13.6751 0.0000 -10.0290 18.3597 -3.8206 21.8037 0.0000 -24.8370 -57.4572 0.8907 -1.2148 0.0000 13.9113 -0.0000 9.9585 -17.5816 2.3676 -27.3122 -0.0000 -34.1669 58.7533 6.5854 -10.4013 -0.0000
 41.6137 8.6736 33.1583 1.8122 -0.5609 -86.3740 -4.4029 1.3286 0.5325 -0.0000 6.2361 0.0000 0.0000 13.7273 4.2541 0.0000 -18.5409 -0.0000 1.5969 4.6410 0.4513 -0.0000 1.3666 0.0000 -0.0000 13.6498 -9.5161 0.0000 -20.8803 -0.0000 41.0984 11.6892 36.6271 -1.0590 4.5672 7.1631 41.0974 9.1071 53.4806 -9.1134 -19.0092 -1.4165 -13.7085 0.0000 -9.9727 18.2974 -3.8657 21.7440 0.0000 -24.8226 -57.5935 0.7146 -1.2453 -0.0000 13.9273 -0.0000 9.9120 -17.5895 2.3834 -27.2118 0.0000 -34.1722 58.7044 6.6417 -10.4291 0.0000
 41.6147 8.6760 33.1576 1.8100 -0.5586 -86.4138 -4.4057 1.3372 0.5630 -0.0000 6.2158 0.0000 0.0000 13.7734 4.2547 0.0000 -18.6558 0.0000 1.5933 4.6321 0.4326 -0.0000 1.3691 0.0000 0.0000 13.6647 -9.4600 0.0000 -20.9175 -0.0000 41.1025 11.6908 36.6260 -1.0531 4.5395 7.1714 41.0963 9.1183 53.4822 -9.1416 -18.9709 -1.4222 -13.7437 0.0000 -9.9348 18.2353 -3.8892 21.7035 0.0000 -24.8288 -57.6483 0.6936 -1.2740 -0.0000 13.9480 -0.0000 9.8875 -17.5954 2.3881 -27.1736 0.0000 -34.1813 58.7061 6.7616 -10.4508 -0.0000
